[Header]
FileType HTR
DataType HTRS
FileVersion 1
NumSegments 64
NumFrames 3
DataFrameRate 24
EulerRotationOrder ZYX
CalibrationUnits mm
RotationUnits Degrees
GlobalAxisofGravity Y
BoneLengthAxis Y
ScaleFactor 1.0
[SegmentNames&Hierarchy]
Hips	GLOBAL
Spine	Hips
Spine1	Spine
Spine2	Spine1
Neck	Spine2
Head	Neck
LeftEye	Head
RightEye	Head
LeftShoulder	Spine2
LeftArm	LeftShoulder
LeftForeArm	LeftArm
LeftHand	LeftForeArm
LeftHandThumb1	LeftHand
LeftHandThumb2	LeftHandThumb1
LeftHandThumb3	LeftHandThumb2
LeftHandThumb4	LeftHandThumb3
LeftHandIndex1	LeftHand
LeftHandIndex2	LeftHandIndex1
LeftHandIndex3	LeftHandIndex2
LeftHandIndex4	LeftHandIndex3
LeftHandMiddle1	LeftHand
LeftHandMiddle2	LeftHandMiddle1
LeftHandMiddle3	LeftHandMiddle2
LeftHandMiddle4	LeftHandMiddle3
LeftHandRing1	LeftHand
LeftHandRing2	LeftHandRing1
LeftHandRing3	LeftHandRing2
LeftHandRing4	LeftHandRing3
LeftHandPinky1	LeftHand
LeftHandPinky2	LeftHandPinky1
LeftHandPinky3	LeftHandPinky2
LeftHandPinky4	LeftHandPinky3
RightShoulder	Spine2
RightArm	RightShoulder
RightForeArm	RightArm
RightHand	RightForeArm
RightHandPinky1	RightHand
RightHandPinky2	RightHandPinky1
RightHandPinky3	RightHandPinky2
RightHandPinky4	RightHandPinky3
RightHandRing1	RightHand
RightHandRing2	RightHandRing1
RightHandRing3	RightHandRing2
RightHandRing4	RightHandRing3
RightHandMiddle1	RightHand
RightHandMiddle2	RightHandMiddle1
RightHandMiddle3	RightHandMiddle2
RightHandMiddle4	RightHandMiddle3
RightHandIndex1	RightHand
RightHandIndex2	RightHandIndex1
RightHandIndex3	RightHandIndex2
RightHandIndex4	RightHandIndex3
RightHandThumb1	RightHand
RightHandThumb2	RightHandThumb1
RightHandThumb3	RightHandThumb2
RightHandThumb4	RightHandThumb3
LeftUpLeg	Hips
LeftLeg	LeftUpLeg
LeftFoot	LeftLeg
LeftToeBase	LeftFoot
RightUpLeg	Hips
RightLeg	RightUpLeg
RightFoot	RightLeg
RightToeBase	RightFoot
[BasePosition]
Hips	0	0	0	0	0	0	1
Spine	0	0	0	0	0	0	1
Spine1	0	0	0	0	0	0	1
Spine2	0	0	0	0	0	0	1
Neck	0	0	0	0	0	0	1
Head	0	0	0	0	0	0	1
LeftEye	0	0	0	0	0	0	1
RightEye	0	0	0	0	0	0	1
LeftShoulder	0	0	0	0	0	0	1
LeftArm	0	0	0	0	0	0	1
LeftForeArm	0	0	0	0	0	0	1
LeftHand	0	0	0	0	0	0	1
LeftHandThumb1	0	0	0	0	0	0	1
LeftHandThumb2	0	0	0	0	0	0	1
LeftHandThumb3	0	0	0	0	0	0	1
LeftHandThumb4	0	0	0	0	0	0	1
LeftHandIndex1	0	0	0	0	0	0	1
LeftHandIndex2	0	0	0	0	0	0	1
LeftHandIndex3	0	0	0	0	0	0	1
LeftHandIndex4	0	0	0	0	0	0	1
LeftHandMiddle1	0	0	0	0	0	0	1
LeftHandMiddle2	0	0	0	0	0	0	1
LeftHandMiddle3	0	0	0	0	0	0	1
LeftHandMiddle4	0	0	0	0	0	0	1
LeftHandRing1	0	0	0	0	0	0	1
LeftHandRing2	0	0	0	0	0	0	1
LeftHandRing3	0	0	0	0	0	0	1
LeftHandRing4	0	0	0	0	0	0	1
LeftHandPinky1	0	0	0	0	0	0	1
LeftHandPinky2	0	0	0	0	0	0	1
LeftHandPinky3	0	0	0	0	0	0	1
LeftHandPinky4	0	0	0	0	0	0	1
RightShoulder	0	0	0	0	0	0	1
RightArm	0	0	0	0	0	0	1
RightForeArm	0	0	0	0	0	0	1
RightHand	0	0	0	0	0	0	1
RightHandPinky1	0	0	0	0	0	0	1
RightHandPinky2	0	0	0	0	0	0	1
RightHandPinky3	0	0	0	0	0	0	1
RightHandPinky4	0	0	0	0	0	0	1
RightHandRing1	0	0	0	0	0	0	1
RightHandRing2	0	0	0	0	0	0	1
RightHandRing3	0	0	0	0	0	0	1
RightHandRing4	0	0	0	0	0	0	1
RightHandMiddle1	0	0	0	0	0	0	1
RightHandMiddle2	0	0	0	0	0	0	1
RightHandMiddle3	0	0	0	0	0	0	1
RightHandMiddle4	0	0	0	0	0	0	1
RightHandIndex1	0	0	0	0	0	0	1
RightHandIndex2	0	0	0	0	0	0	1
RightHandIndex3	0	0	0	0	0	0	1
RightHandIndex4	0	0	0	0	0	0	1
RightHandThumb1	0	0	0	0	0	0	1
RightHandThumb2	0	0	0	0	0	0	1
RightHandThumb3	0	0	0	0	0	0	1
RightHandThumb4	0	0	0	0	0	0	1
LeftUpLeg	0	0	0	0	0	0	1
LeftLeg	0	0	0	0	0	0	1
LeftFoot	0	0	0	0	0	0	1
LeftToeBase	0	0	0	0	0	0	1
RightUpLeg	0	0	0	0	0	0	1
RightLeg	0	0	0	0	0	0	1
RightFoot	0	0	0	0	0	0	1
RightToeBase	0	0	0	0	0	0	1
[Hips]
1	3.023115158	1026.577881	14.86990547	-3.260456324	-6.35094738	-4.324017525	1.0
2	1.326925159	1025.501953	5.425748825	-2.689668894	-1.53281498	-3.880183697	1.0
3	-3.359232426	1025.633301	-5.634325981	-2.396715164	3.507615805	-3.399822235	1.0
[Spine]
1	0	101.8159943	1.315000057	3.376549482	1.369664788	3.933596849	1.0
2	0	101.8159943	1.315000057	3.504957676	1.669321418	3.989269257	1.0
3	0	101.8159943	1.315000057	3.687597275	1.895071626	3.843106985	1.0
[Spine1]
1	0	100.8349991	-10.00800037	1.168151021	0.3235457242	1.697925925	1.0
2	0	100.8349991	-10.00800037	1.292818546	0.5052921772	1.734416485	1.0
3	0	100.8349991	-10.00800037	1.4602319	0.654794693	1.925125718	1.0
[Spine2]
1	0	91	-13.73399925	1.14268291	0.349711448	1.703832865	1.0
2	0	91	-13.73399925	1.26187551	0.5332664251	1.663903475	1.0
3	0	91	-13.73399925	1.422922134	0.6749352813	1.67211926	1.0
[Neck]
1	0	166.7169952	-25.16200066	5.625520229	-0.1231579781	0.4447531104	1.0
2	0	166.7169952	-25.16200066	5.550864697	0.9072265625	0.05049581826	1.0
3	0	166.7169952	-25.16200066	5.883619308	2.714538336	-0.52003479	1.0
[Head]
1	0	96.17900085	16.84999847	-7.567391872	1.353142262	-0.2609963119	1.0
2	0	96.17900085	16.84999847	-7.975308418	4.230782032	-1.449926972	1.0
3	0	96.17900085	16.84999847	-7.811171055	8.534562111	-3.144975901	1.0
[LeftEye]
1	30.6760006	64.09500122	92.83599854	0	0	0	1.0
2	30.6760006	64.09500122	92.83599854	0	0	0	1.0
3	30.6760006	64.09500122	92.83599854	0	0	0	1.0
[RightEye]
1	-30.6760006	64.09500122	92.83499908	0	0	0	1.0
2	-30.6760006	64.09500122	92.83499908	0	0	0	1.0
3	-30.6760006	64.09500122	92.83499908	0	0	0	1.0
[LeftShoulder]
1	45.70400238	109.4599991	-26.28000069	4.903662205	-16.79105949	-13.20455456	1.0
2	45.70400238	109.4599991	-26.28000069	4.968681335	-16.93554115	-13.56113529	1.0
3	45.70400238	109.4599991	-26.28000069	5.063940048	-17.10145569	-14.13336945	1.0
[LeftArm]
1	105.923996	-5.24600029	-22.32099915	20.12804604	-3.088276863	-71.00372314	1.0
2	105.923996	-5.24600029	-22.32099915	19.47962761	-5.014827728	-70.01670837	1.0
3	105.923996	-5.24600029	-22.32099915	18.79739189	-7.487961769	-68.43138885	1.0
[LeftForeArm]
1	278.414978	-0.0009999999311	0	-2.930453775e-06	-1.459357142	-0.0002011379111	1.0
2	278.414978	-0.0009999999311	0	-9.539583516e-06	-2.361137867	-0.0001946601988	1.0
3	278.414978	-0.0009999999311	0	-1.69893292e-06	-2.885753632	-0.0001979514054	1.0
[LeftHand]
1	283.2879944	0	0	-32.9553566	-4.523304939	-4.439644814	1.0
2	283.2879944	0	0	-32.48651886	-5.012671947	-2.282618999	1.0
3	283.2879944	0	0	-29.89814377	-4.207316875	0.3298593462	1.0
[LeftHandThumb1]
1	24.6609993	-15.75	26.8239994	-0.4889881611	2.201389551	4.818526268	1.0
2	24.6609993	-15.75	26.8239994	-0.4889881611	2.201389551	4.818526268	1.0
3	24.6609993	-15.75	26.8239994	-0.4889881611	2.201389551	4.818526268	1.0
[LeftHandThumb2]
1	32.29800034	-18.64699936	18.64699936	19.88971138	19.97311211	23.2711792	1.0
2	32.29800034	-18.64699936	18.64699936	19.69554329	20.0146656	23.21954155	1.0
3	32.29800034	-18.64699936	18.64699936	20.16134071	20.00896263	23.36634636	1.0
[LeftHandThumb3]
1	26.52600098	-15.31499958	15.31499958	-13.14391994	5.553330898	7.952866077	1.0
2	26.52600098	-15.31499958	15.31499958	-13.15155315	5.649149418	7.949319839	1.0
3	26.52600098	-15.31499958	15.31499958	-13.1724453	5.42923975	8.002585411	1.0
[LeftHandThumb4]
1	19.54599953	-11.28499985	11.28499985	0	0	0	1.0
2	19.54599953	-11.28499985	11.28499985	0	0	0	1.0
3	19.54599953	-11.28499985	11.28499985	0	0	0	1.0
[LeftHandIndex1]
1	91.09299469	-5.170999527	22.60099792	0.1380006969	-0.9618671536	-7.594499588	1.0
2	91.09299469	-5.170999527	22.60099792	0.134319827	-0.9712896943	-7.690467834	1.0
3	91.09299469	-5.170999527	22.60099792	0.1461146474	-0.8895302415	-7.941932201	1.0
[LeftHandIndex2]
1	36.76399994	0	0	-0.2673251033	1.747157574	-17.39689636	1.0
2	36.76399994	0	0	-0.2673262954	1.747157693	-17.39691353	1.0
3	36.76399994	0	0	-0.2673231363	1.747159362	-17.39688301	1.0
[LeftHandIndex3]
1	28.83100128	0	0	-0.05772158131	0.81940341	-8.058767319	1.0
2	28.83100128	0	0	-0.05772061646	0.8194022775	-8.058768272	1.0
3	28.83100128	0	0	-0.05772203952	0.8193996549	-8.058794022	1.0
[LeftHandIndex4]
1	23.92700005	0	0	0	0	0	1.0
2	23.92700005	0	0	0	0	0	1.0
3	23.92700005	0	0	0	0	0	1.0
[LeftHandMiddle1]
1	95.33399963	0	0	-0.7942890525	2.538621187	-15.71738052	1.0
2	95.33399963	0	0	-0.8015463352	2.463525772	-15.82730675	1.0
3	95.33399963	0	0	-0.8219003081	2.542238951	-16.1255703	1.0
[LeftHandMiddle2]
1	36.98199844	0	0	-0.2676878273	1.748309851	-17.40871811	1.0
2	36.98199844	0	0	-0.2679057717	1.749011636	-17.41592979	1.0
3	36.98199844	0	0	-0.2687604129	1.751733541	-17.44389725	1.0
[LeftHandMiddle3]
1	29.50900078	0	0	-0.2993015349	1.846071601	-18.41684151	1.0
2	29.50900078	0	0	-0.2995397151	1.846792579	-18.42424011	1.0
3	29.50900078	0	0	-0.3004347384	1.849472642	-18.45196152	1.0
[LeftHandMiddle4]
1	28.3390007	0	0	0	0	0	1.0
2	28.3390007	0	0	0	0	0	1.0
3	28.3390007	0	0	0	0	0	1.0
[LeftHandRing1]
1	91.04499817	-0.4390000105	-18.65100098	-1.184987068	3.430740595	-21.16680336	1.0
2	91.04499817	-0.4390000105	-18.65100098	-1.191948652	3.445799589	-21.25877571	1.0
3	91.04499817	-0.4390000105	-18.65100098	-1.207426667	3.519833803	-21.46213531	1.0
[LeftHandRing2]
1	31.54000092	0	0	-0.3849340975	2.085561991	-20.91277122	1.0
2	31.54000092	0	0	-0.3861779869	2.08880949	-20.94691467	1.0
3	31.54000092	0	0	-0.3870887458	2.091187239	-20.97193718	1.0
[LeftHandRing3]
1	29.37700081	0	0	-0.2818058729	1.792708874	-17.86577606	1.0
2	29.37700081	0	0	-0.2828751206	1.796014786	-17.89987183	1.0
3	29.37700081	0	0	-0.2836524546	1.798412681	-17.92462158	1.0
[LeftHandRing4]
1	26.47500038	0	0	0	0	0	1.0
2	26.47500038	0	0	0	0	0	1.0
3	26.47500038	0	0	0	0	0	1.0
[LeftHandPinky1]
1	80.77799988	-4.887000084	-38.06099701	-1.710556626	5.355367661	-27.16539383	1.0
2	80.77799988	-4.887000084	-38.06099701	-1.715603709	5.317286968	-27.22546005	1.0
3	80.77799988	-4.887000084	-38.06099701	-1.719956875	5.40230608	-27.34641457	1.0
[LeftHandPinky2]
1	36	0	0	-0.2682368159	1.750061035	-17.42672157	1.0
2	36	0	0	-0.2682366371	1.750059247	-17.42672729	1.0
3	36	0	0	-0.2682342529	1.75005877	-17.42671013	1.0
[LeftHandPinky3]
1	21.14200211	0	0	-0.2415002286	1.662530661	-16.52887726	1.0
2	21.14200211	0	0	-0.2414995283	1.662533641	-16.52886963	1.0
3	21.14200211	0	0	-0.2415007949	1.662533283	-16.5288868	1.0
[LeftHandPinky4]
1	19.75699997	0	0	0	0	0	1.0
2	19.75699997	0	0	0	0	0	1.0
3	19.75699997	0	0	0	0	0	1.0
[RightShoulder]
1	-45.70000076	109.4620056	-26.28000069	5.183711529	14.51022911	15.52839851	1.0
2	-45.70000076	109.4620056	-26.28000069	5.185679436	14.59352875	15.2291975	1.0
3	-45.70000076	109.4620056	-26.28000069	5.171518326	14.60340977	14.95397949	1.0
[RightArm]
1	-105.9280014	-5.248000145	-22.32099915	30.23852921	2.220948219	62.62535095	1.0
2	-105.9280014	-5.248000145	-22.32099915	30.59381294	1.607335806	62.02631378	1.0
3	-105.9280014	-5.248000145	-22.32099915	30.4623642	0.6937651038	61.14025116	1.0
[RightForeArm]
1	-278.414978	0	0	1.863266789e-06	6.693532944	-1.427793791e-06	1.0
2	-278.414978	0	0	-9.230104297e-06	7.099185467	-4.456036095e-06	1.0
3	-278.414978	0	0	-6.006921922e-06	7.726669312	4.069913757e-06	1.0
[RightHand]
1	-283.2879944	0	0.0009999999311	-20.07678795	1.855673671	6.545353889	1.0
2	-283.2879944	0	0.0009999999311	-20.55449486	1.687984824	6.471694469	1.0
3	-283.2879944	0	0.0009999999311	-21.17385674	1.111557245	6.307481766	1.0
[RightHandPinky1]
1	-80.76699829	-4.885000229	-38.06000137	-1.507178903	-4.696117401	26.5058918	1.0
2	-80.76699829	-4.885000229	-38.06000137	-1.538622975	-4.570201874	26.6248951	1.0
3	-80.76699829	-4.885000229	-38.06000137	-1.571505785	-4.441239834	26.75528526	1.0
[RightHandPinky2]
1	-36	0	0.0009999999311	-0.2127638906	-1.388872266	17.43784142	1.0
2	-36	0	0.0009999999311	-0.2143937051	-1.394080758	17.50523567	1.0
3	-36	0	0.0009999999311	-0.2133464813	-1.390716434	17.46181297	1.0
[RightHandPinky3]
1	-21.14200211	0	0	-0.1919147819	-1.320604205	16.53641319	1.0
2	-21.14200211	0	0	-0.1934099793	-1.325612903	16.60103989	1.0
3	-21.14200211	0	0	-0.19233495	-1.322031856	16.55476761	1.0
[RightHandPinky4]
1	-19.75699997	0	0	0	0	0	1.0
2	-19.75699997	0	0	0	0	0	1.0
3	-19.75699997	0	0	0	0	0	1.0
[RightHandRing1]
1	-91.03599548	-0.4390000105	-18.65100098	-1.045234084	-2.883112192	20.47790146	1.0
2	-91.03599548	-0.4390000105	-18.65100098	-1.051074624	-2.860938787	20.56676102	1.0
3	-91.03599548	-0.4390000105	-18.65100098	-1.058487892	-2.831287861	20.67973137	1.0
[RightHandRing2]
1	-31.54000092	0	0	-0.3066616654	-1.658665895	20.94818687	1.0
2	-31.54000092	0	0	-0.3066547215	-1.658668995	20.94817734	1.0
3	-31.54000092	0	0	-0.3066634834	-1.658673644	20.94817543	1.0
[RightHandRing3]
1	-29.37700081	0	0	-0.2245208174	-1.425784349	17.89686012	1.0
2	-29.37700081	0	0	-0.2245216221	-1.425783634	17.89686203	1.0
3	-29.37700081	0	0	-0.2245173752	-1.425784707	17.89686394	1.0
[RightHandRing4]
1	-26.47500038	0	0	0	0	0	1.0
2	-26.47500038	0	0	0	0	0	1.0
3	-26.47500038	0	0	0	0	0	1.0
[RightHandMiddle1]
1	-95.32500458	0	0	-0.7017365694	-2.080689192	15.01578236	1.0
2	-95.32500458	0	0	-0.7083104253	-2.095576286	15.1257	1.0
3	-95.32500458	0	0	-0.7141749859	-2.122264147	15.2232914	1.0
[RightHandMiddle2]
1	-36.98199844	0	0	-0.2136358619	-1.391662121	17.45431137	1.0
2	-36.98199844	0	0	-0.2136368304	-1.391664028	17.45429993	1.0
3	-36.98199844	0	0	-0.2136333734	-1.3916502	17.45432472	1.0
[RightHandMiddle3]
1	-29.50900078	0	0	-0.2388330996	-1.471394062	18.46359825	1.0
2	-29.50900078	0	0	-0.2388362437	-1.471383691	18.46358871	1.0
3	-29.50900078	0	0	-0.2388330251	-1.471396685	18.46358299	1.0
[RightHandMiddle4]
1	-28.3390007	0	0.0009999999311	0	0	0	1.0
2	-28.3390007	0	0.0009999999311	0	0	0	1.0
3	-28.3390007	0	0.0009999999311	0	0	0	1.0
[RightHandIndex1]
1	-91.08300018	-5.167999744	22.60099792	0.1759923249	1.251929402	6.825706005	1.0
2	-91.08300018	-5.167999744	22.60099792	0.1737109125	1.275827765	6.87498951	1.0
3	-91.08300018	-5.167999744	22.60099792	0.1673759222	1.265804291	7.003066063	1.0
[RightHandIndex2]
1	-36.76399994	0	0	-0.21259965	-1.388343334	17.41139984	1.0
2	-36.76399994	0	0	-0.2123485506	-1.387547612	17.40098953	1.0
3	-36.76399994	0	0	-0.2116309106	-1.385262251	17.37150002	1.0
[RightHandIndex3]
1	-28.83100128	0	0	-0.0458054319	-0.6504108906	8.057271004	1.0
2	-28.83100128	0	0	-0.04569070041	-0.6495788097	8.046881676	1.0
3	-28.83100128	0	0	-0.04535542801	-0.6472156048	8.01736927	1.0
[RightHandIndex4]
1	-23.92700005	0	0	0	0	0	1.0
2	-23.92700005	0	0	0	0	0	1.0
3	-23.92700005	0	0	0	0	0	1.0
[RightHandThumb1]
1	-24.64799881	-15.72700024	26.82600021	-1.658465981	-0.2891423702	-4.221325874	1.0
2	-24.64799881	-15.72700024	26.82600021	-1.658465981	-0.2891423702	-4.221325874	1.0
3	-24.64799881	-15.72700024	26.82600021	-1.658465981	-0.2891423702	-4.221325874	1.0
[RightHandThumb2]
1	-32.29800034	-18.64699936	18.64699936	22.25424385	-23.8877182	-24.28743935	1.0
2	-32.29800034	-18.64699936	18.64699936	22.22658348	-23.86691093	-24.25885582	1.0
3	-32.29800034	-18.64699936	18.64699936	22.30475616	-23.95820808	-24.25327301	1.0
[RightHandThumb3]
1	-26.52600098	-15.31399918	15.31399918	-14.49308777	-6.731801033	-11.36924267	1.0
2	-26.52600098	-15.31399918	15.31399918	-14.49307442	-6.731811523	-11.36925793	1.0
3	-26.52600098	-15.31399918	15.31399918	-14.49307346	-6.731801987	-11.36925411	1.0
[RightHandThumb4]
1	-19.54599953	-11.28499985	11.28499985	0	0	0	1.0
2	-19.54599953	-11.28499985	11.28499985	0	0	0	1.0
3	-19.54599953	-11.28499985	11.28499985	0	0	0	1.0
[LeftUpLeg]
1	82.07800293	-67.51699829	-15.99599934	-12.6536665	35.00146484	6.992822647	1.0
2	82.07800293	-67.51699829	-15.99599934	-15.9278698	35.30451202	6.106707096	1.0
3	82.07800293	-67.51699829	-15.99599934	-18.86353493	35.64332962	5.514237881	1.0
[LeftLeg]
1	0	-443.7049866	2.845999956	17.92663193	-8.624442101	3.112883091	1.0
2	0	-443.7049866	2.845999956	19.93190384	-8.564790726	0.9199226499	1.0
3	0	-443.7049866	2.845999956	22.1757431	-8.51133728	-1.223736644	1.0
[LeftFoot]
1	0	-444.2789917	-29.8219986	-1.191399574	-8.740393639	-5.232524872	1.0
2	0	-444.2789917	-29.8219986	0.648624897	-11.45537853	-7.256044865	1.0
3	0	-444.2789917	-29.8219986	3.182926893	-10.52935505	-12.76799107	1.0
[LeftToeBase]
1	0	-87.28699493	107.1060028	-4.928524017	6.713923995e-08	2.86044542e-06	1.0
2	0	-87.28699493	107.1060028	-4.301775455	4.067484497e-06	-6.293682304e-07	1.0
3	0	-87.28699493	107.1060028	-3.693856001	-9.777370906e-06	6.614684935e-06	1.0
[RightUpLeg]
1	-82.07800293	-67.51699829	-15.99599934	-2.94421649	-10.44257641	4.280815125	1.0
2	-82.07800293	-67.51699829	-15.99599934	-4.773922443	-15.10657883	4.051010609	1.0
3	-82.07800293	-67.51699829	-15.99599934	-5.948842049	-19.99271202	3.977185726	1.0
[RightLeg]
1	0	-443.7049866	2.861999989	13.99891758	-8.812414169	-5.520423412	1.0
2	0	-443.7049866	2.861999989	15.30755329	-8.7862463	-5.753716946	1.0
3	0	-443.7049866	2.861999989	15.74038792	-8.745446205	-5.820271015	1.0
[RightFoot]
1	0	-444.2770081	-29.83799934	-6.687803268	-1.311141014	3.941601515	1.0
2	0	-444.2770081	-29.83799934	-7.203938007	-1.309631824	3.822045326	1.0
3	0	-444.2770081	-29.83799934	-7.32100153	-1.468068838	3.451526165	1.0
[RightToeBase]
1	0	-87.28699493	107.1060028	-7.282875538	-4.238613656e-06	-5.244112344e-07	1.0
2	0	-87.28699493	107.1060028	-7.282876968	9.370326552e-06	-7.474522477e-07	1.0
3	0	-87.28699493	107.1060028	-7.282873631	-3.173078994e-06	-3.311254773e-07	1.0
[EndOfFile]
